999
dxfrw 0.6.3
  0
SECTION
  2
HEADER
  9
$ACADVER
  1
AC1021
  9
$DWGCODEPAGE
  3
ANSI_1252
  9
$INSBASE
 10
0
 20
0
 30
0
  9
$EXTMIN
 10
-66.9927865946205
 20
-67.70053841465062
 30
0
  9
$EXTMAX
 10
6048.426697497462
 20
4090.86181793372
 30
0
  9
$LIMMIN
 10
0
 20
0
  9
$LIMMAX
 10
1189
 20
841
  9
$ORTHOMODE
 70
    1
  9
$REGENMODE
 70
    1
  9
$FILLMODE
 70
    0
  9
$QTEXTMODE
 70
    0
  9
$MIRRTEXT
 70
    1
  9
$LTSCALE
 40
20
  9
$ATTMODE
 70
    1
  9
$TEXTSIZE
 40
3.5
  9
$TRACEWID
 40
0.5
  9
$TEXTSTYLE
  7
STANDARD
  9
$CLAYER
  8
0
  9
$CELTYPE
  6
BYLAYER
  9
$CECOLOR
 62
  256
  9
$CELTSCALE
 40
1
  9
$DISPSILH
 70
    0
  9
$DIMSCALE
 40
50
  9
$DIMASZ
 40
3.5
  9
$DIMEXO
 40
1.5
  9
$DIMDLI
 40
1
  9
$DIMRND
 40
0
  9
$DIMDLE
 40
0
  9
$DIMEXE
 40
2
  9
$DIMTP
 40
0
  9
$DIMTM
 40
0
  9
$DIMTXT
 40
2.5
  9
$DIMCEN
 40
0
  9
$DIMTSZ
 40
0
  9
$DIMTOL
 70
    0
  9
$DIMLIM
 70
    0
  9
$DIMTIH
 70
    0
  9
$DIMTOH
 70
    0
  9
$DIMSE1
 70
    0
  9
$DIMSE2
 70
    0
  9
$DIMTAD
 70
    1
  9
$DIMZIN
 70
    8
  9
$DIMBLK
  1

  9
$DIMASO
 70
    1
  9
$DIMSHO
 70
    1
  9
$DIMPOST
  1

  9
$DIMAPOST
  1

  9
$DIMALT
 70
    0
  9
$DIMALTD
 70
    2
  9
$DIMALTF
 40
25.4
  9
$DIMLFAC
 40
1
  9
$DIMTOFL
 70
    0
  9
$DIMTVP
 40
0
  9
$DIMTIX
 70
    0
  9
$DIMSOXD
 70
    0
  9
$DIMSAH
 70
    0
  9
$DIMBLK1
  1

  9
$DIMBLK2
  1

  9
$DIMSTYLE
  2
IMP1-50
  9
$DIMCLRD
 70
    2
  9
$DIMCLRE
 70
    2
  9
$DIMCLRT
 70
    3
  9
$DIMTFAC
 40
1
  9
$DIMGAP
 40
2
  9
$DIMJUST
 70
    0
  9
$DIMSD1
 70
    0
  9
$DIMSD2
 70
    0
  9
$DIMTOLJ
 70
    1
  9
$DIMTZIN
 70
    8
  9
$DIMALTZ
 70
    8
  9
$DIMALTTZ
 70
    8
  9
$DIMUPT
 70
    0
  9
$DIMDEC
 70
    2
  9
$DIMTDEC
 70
    2
  9
$DIMALTU
 70
    2
  9
$DIMALTTD
 70
    2
  9
$DIMTXSTY
  7
standard
  9
$DIMAUNIT
 70
    0
  9
$DIMADEC
 70
    0
  9
$DIMALTRND
 40
0
  9
$DIMAZIN
 70
    0
  9
$DIMDSEP
 70
   44
  9
$DIMATFIT
 70
    3
  9
$DIMFRAC
 70
    0
  9
$DIMLDRBLK
  1
STANDARD
  9
$DIMLUNIT
 70
    2
  9
$DIMLWD
 70
   -2
  9
$DIMLWE
 70
   -2
  9
$DIMTMOVE
 70
    0
  9
$DIMFXL
 40
1
  9
$DIMFXLON
 70
    0
  9
$DIMJOGANG
 40
0.7854
  9
$DIMTFILL
 70
    0
  9
$DIMTFILLCLR
 70
    0
  9
$DIMARCSYM
 70
    0
  9
$DIMLTYPE
  6

  9
$DIMLTEX1
  6

  9
$DIMLTEX2
  6

  9
$LUNITS
 70
    2
  9
$LUPREC
 70
    2
  9
$SKETCHINC
 40
0.1
  9
$FILLETRAD
 40
10
  9
$AUNITS
 70
    0
  9
$AUPREC
 70
    2
  9
$MENU
  1
ACAD
  9
$ELEVATION
 40
0
  9
$PELEVATION
 40
0
  9
$THICKNESS
 40
0
  9
$LIMCHECK
 70
    0
  9
$CHAMFERA
 40
2
  9
$CHAMFERB
 40
2
  9
$CHAMFERC
 40
0
  9
$CHAMFERD
 40
0
  9
$SKPOLY
 70
    0
  9
$USRTIMER
 70
    1
  9
$ANGBASE
 50
0
  9
$ANGDIR
 70
    0
  9
$PDMODE
 70
    0
  9
$PDSIZE
 40
-15
  9
$PLINEWID
 40
0
  9
$SPLFRAME
 70
    0
  9
$SPLINETYPE
 70
    6
  9
$SPLINESEGS
 70
    8
  9
$HANDSEED
  5
20000
  9
$SURFTAB1
 70
    6
  9
$SURFTAB2
 70
    6
  9
$SURFTYPE
 70
    6
  9
$SURFU
 70
    6
  9
$SURFV
 70
    6
  9
$UCSBASE
  2

  9
$UCSNAME
  2

  9
$UCSORG
 10
0
 20
0
 30
0
  9
$UCSXDIR
 10
1
 20
0
 30
0
  9
$UCSYDIR
 10
0
 20
1
 30
0
  9
$UCSORTHOREF
  2

  9
$UCSORTHOVIEW
 70
    0
  9
$UCSORGTOP
 10
0
 20
0
 30
0
  9
$UCSORGBOTTOM
 10
0
 20
0
 30
0
  9
$UCSORGLEFT
 10
0
 20
0
 30
0
  9
$UCSORGRIGHT
 10
0
 20
0
 30
0
  9
$UCSORGFRONT
 10
0
 20
0
 30
0
  9
$UCSORGBACK
 10
0
 20
0
 30
0
  9
$PUCSBASE
  2

  9
$PUCSNAME
  2

  9
$PUCSORG
 10
0
 20
0
 30
0
  9
$PUCSXDIR
 10
1
 20
0
 30
0
  9
$PUCSYDIR
 10
0
 20
1
 30
0
  9
$PUCSORTHOREF
  2

  9
$PUCSORTHOVIEW
 70
    0
  9
$PUCSORGTOP
 10
0
 20
0
 30
0
  9
$PUCSORGBOTTOM
 10
0
 20
0
 30
0
  9
$PUCSORGLEFT
 10
0
 20
0
 30
0
  9
$PUCSORGRIGHT
 10
0
 20
0
 30
0
  9
$PUCSORGFRONT
 10
0
 20
0
 30
0
  9
$PUCSORGBACK
 10
0
 20
0
 30
0
  9
$USERI1
 70
    0
  9
$USERI2
 70
    0
  9
$USERI3
 70
    0
  9
$USERI4
 70
    0
  9
$USERI5
 70
    0
  9
$USERR1
 40
0
  9
$USERR2
 40
0
  9
$USERR3
 40
0
  9
$USERR4
 40
0
  9
$USERR5
 40
0
  9
$WORLDVIEW
 70
    1
  9
$SHADEDGE
 70
    3
  9
$SHADEDIF
 70
   70
  9
$TILEMODE
 70
    1
  9
$MAXACTVP
 70
   16
  9
$PINSBASE
 10
4.252454102135269e-308
 20
4.371235473816539e-303
 30
0
  9
$PLIMCHECK
 70
    0
  9
$PEXTMIN
 10
1e+20
 20
1e+20
 30
1e+20
  9
$PEXTMAX
 10
-1e+20
 20
-1e+20
 30
-1e+20
  9
$GRIDMODE
 70
    0
  9
$SNAPSTYLE
 70
    0
  9
$GRIDUNIT
 10
0
 20
0
  9
$PLIMMIN
 10
0
 20
0
  9
$PLIMMAX
 10
0
 20
0
  9
$UNITMODE
 70
    0
  9
$VISRETAIN
 70
    0
  9
$PLINEGEN
 70
    0
  9
$PSLTSCALE
 70
    0
  9
$TREEDEPTH
 70
  -52
  9
$CMLSTYLE
  2
STANDARD
  9
$CMLJUST
 70
    0
  9
$CMLSCALE
 40
1
  9
$PROXYGRAPHICS
 70
    1
  9
$MEASUREMENT
 70
    1
  9
$CELWEIGHT
370
   -1
  9
$ENDCAPS
280
    0
  9
$JOINSTYLE
280
    0
  9
$LWDISPLAY
290
    0
  9
$INSUNITS
 70
    4
  9
$HYPERLINKBASE
  1

  9
$STYLESHEET
  1

  9
$XEDIT
290
    1
  9
$CEPSNTYPE
380
    0
  9
$PSTYLEMODE
290
    1
  9
$EXTNAMES
290
    1
  9
$PSVPSCALE
 40
1
  9
$OLESTARTUP
290
    0
  9
$SORTENTS
280
  127
  9
$INDEXCTL
280
    0
  9
$HIDETEXT
280
    1
  9
$XCLIPFRAME
290
    0
  9
$HALOGAP
280
    0
  9
$OBSCOLOR
 70
  257
  9
$OBSLTYPE
280
    0
  9
$INTERSECTIONDISPLAY
280
    0
  9
$INTERSECTIONCOLOR
 70
  257
  9
$DIMASSOC
280
    1
  9
$PROJECTNAME
  1

  9
$CAMERADISPLAY
290
    0
  9
$LENSLENGTH
 40
50
  9
$CAMERAHEIGHT
 40
0
  9
$STEPSPERSEC
 40
2
  9
$STEPSIZE
 40
50
  9
$3DDWFPREC
 40
2
  9
$PSOLWIDTH
 40
5
  9
$PSOLHEIGHT
 40
80
  9
$LOFTANG1
 40
1.570796326794897
  9
$LOFTANG2
 40
1.570796326794897
  9
$LOFTMAG1
 40
0
  9
$LOFTMAG2
 40
0
  9
$LOFTPARAM
 70
    7
  9
$LOFTNORMALS
280
    1
  9
$LATITUDE
 40
1
  9
$LONGITUDE
 40
1
  9
$NORTHDIRECTION
 40
0
  9
$TIMEZONE
 70
-8000
  9
$LIGHTGLYPHDISPLAY
280
    1
  9
$TILEMODELIGHTSYNCH
280
    1
  9
$SOLIDHIST
280
    1
  9
$SHOWHIST
280
    1
  9
$DWFFRAME
280
    2
  9
$DGNFRAME
280
    0
  9
$REALWORLDSCALE
290
    1
  9
$INTERFERECOLOR
 62
    1
  9
$CSHADOW
280
    0
  9
$SHADOWPLANELOCATION
 40
0
  0
ENDSEC
  0
SECTION
  2
CLASSES
  0
ENDSEC
  0
SECTION
  2
TABLES
  0
TABLE
  2
VPORT
  5
8
330
0
100
AcDbSymbolTable
 70
    1
  0
VPORT
  5
31
330
2
100
AcDbSymbolTableRecord
100
AcDbViewportTableRecord
  2
*ACTIVE
 70
    0
 10
0
 20
0
 11
1
 21
1
 12
342.5558853806177
 22
2109.448512795172
 13
0
 23
0
 14
10
 24
10
 15
10
 25
10
 16
0
 26
0
 36
1
 17
0
 27
0
 37
0
 40
743.090199880663
 41
1.560468140442133
 42
50
 43
0
 44
0
 50
0
 51
0
 71
    0
 72
  100
 73
    1
 74
    3
 75
    0
 76
    0
 77
    0
 78
    0
281
    0
 65
    1
110
0
120
0
130
0
111
1
121
0
131
0
112
0
122
1
132
0
 79
    0
146
0
348
10020
 60
    7
 61
    5
292
1
282
    1
141
0
142
0
 63
  250
421
3358443
  0
ENDTAB
  0
TABLE
  2
LTYPE
  5
5
330
0
100
AcDbSymbolTable
 70
    4
  0
LTYPE
  5
14
330
5
100
AcDbSymbolTableRecord
100
AcDbLinetypeTableRecord
  2
ByBlock
 70
    0
  3

 72
   65
 73
    0
 40
0
  0
LTYPE
  5
15
330
5
100
AcDbSymbolTableRecord
100
AcDbLinetypeTableRecord
  2
ByLayer
 70
    0
  3

 72
   65
 73
    0
 40
0
  0
LTYPE
  5
16
330
5
100
AcDbSymbolTableRecord
100
AcDbLinetypeTableRecord
  2
Continuous
 70
    0
  3
Solid line
 72
   65
 73
    0
 40
0
  0
LTYPE
  5
32
330
5
100
AcDbSymbolTableRecord
100
AcDbLinetypeTableRecord
  2
DOT
 70
    0
  3
Dot . . . . . . . . . . . . . . . . . . . . . .
 72
   65
 73
    2
 40
6.35
 49
0
 74
    0
 49
-6.35
 74
    0
  0
LTYPE
  5
33
330
5
100
AcDbSymbolTableRecord
100
AcDbLinetypeTableRecord
  2
DOTTINY
 70
    0
  3
Dot (.15x) .....................................
 72
   65
 73
    2
 40
0.9525
 49
0
 74
    0
 49
-0.9525
 74
    0
  0
LTYPE
  5
34
330
5
100
AcDbSymbolTableRecord
100
AcDbLinetypeTableRecord
  2
DOT2
 70
    0
  3
Dot (.5x) .....................................
 72
   65
 73
    2
 40
3.175
 49
0
 74
    0
 49
-3.175
 74
    0
  0
LTYPE
  5
35
330
5
100
AcDbSymbolTableRecord
100
AcDbLinetypeTableRecord
  2
DOTX2
 70
    0
  3
Dot (2x) .  .  .  .  .  .  .  .  .  .  .  .  .
 72
   65
 73
    2
 40
12.7
 49
0
 74
    0
 49
-12.7
 74
    0
  0
LTYPE
  5
36
330
5
100
AcDbSymbolTableRecord
100
AcDbLinetypeTableRecord
  2
DASHED
 70
    0
  3
Dashed _ _ _ _ _ _ _ _ _ _ _ _ _ _ _ _ _
 72
   65
 73
    2
 40
19.05
 49
12.7
 74
    0
 49
-6.35
 74
    0
  0
LTYPE
  5
37
330
5
100
AcDbSymbolTableRecord
100
AcDbLinetypeTableRecord
  2
DASHEDTINY
 70
    0
  3
Dashed (.15x) _ _ _ _ _ _ _ _ _ _ _ _ _ _ _ _ _
 72
   65
 73
    2
 40
2.8575
 49
1.905
 74
    0
 49
-0.9525
 74
    0
  0
LTYPE
  5
38
330
5
100
AcDbSymbolTableRecord
100
AcDbLinetypeTableRecord
  2
DASHED2
 70
    0
  3
Dashed (.5x) _ _ _ _ _ _ _ _ _ _ _ _ _ _ _ _ _
 72
   65
 73
    2
 40
9.524999999999999
 49
6.35
 74
    0
 49
-3.175
 74
    0
  0
LTYPE
  5
39
330
5
100
AcDbSymbolTableRecord
100
AcDbLinetypeTableRecord
  2
DASHEDX2
 70
    0
  3
Dashed (2x) ____  ____  ____  ____  ____  ___
 72
   65
 73
    2
 40
38.09999999999999
 49
25.4
 74
    0
 49
-12.7
 74
    0
  0
LTYPE
  5
3A
330
5
100
AcDbSymbolTableRecord
100
AcDbLinetypeTableRecord
  2
DASHDOT
 70
    0
  3
Dash dot __ . __ . __ . __ . __ . __ . __ . __
 72
   65
 73
    4
 40
25.4
 49
12.7
 74
    0
 49
-6.35
 74
    0
 49
0
 74
    0
 49
-6.35
 74
    0
  0
LTYPE
  5
3B
330
5
100
AcDbSymbolTableRecord
100
AcDbLinetypeTableRecord
  2
DASHDOTTINY
 70
    0
  3
Dash dot (.15x) _._._._._._._._._._._._._._._.
 72
   65
 73
    4
 40
3.81
 49
1.905
 74
    0
 49
-0.9525
 74
    0
 49
0
 74
    0
 49
-0.9525
 74
    0
  0
LTYPE
  5
3C
330
5
100
AcDbSymbolTableRecord
100
AcDbLinetypeTableRecord
  2
DASHDOT2
 70
    0
  3
Dash dot (.5x) _._._._._._._._._._._._._._._.
 72
   65
 73
    4
 40
12.7
 49
6.35
 74
    0
 49
-3.175
 74
    0
 49
0
 74
    0
 49
-3.175
 74
    0
  0
LTYPE
  5
3D
330
5
100
AcDbSymbolTableRecord
100
AcDbLinetypeTableRecord
  2
DASHDOTX2
 70
    0
  3
Dash dot (2x) ____  .  ____  .  ____  .  ___
 72
   65
 73
    4
 40
50.8
 49
25.4
 74
    0
 49
-12.7
 74
    0
 49
0
 74
    0
 49
-12.7
 74
    0
  0
LTYPE
  5
3E
330
5
100
AcDbSymbolTableRecord
100
AcDbLinetypeTableRecord
  2
DIVIDE
 70
    0
  3
Divide ____ . . ____ . . ____ . . ____ . . ____
 72
   65
 73
    6
 40
31.75
 49
12.7
 74
    0
 49
-6.35
 74
    0
 49
0
 74
    0
 49
-6.35
 74
    0
 49
0
 74
    0
 49
-6.35
 74
    0
  0
LTYPE
  5
3F
330
5
100
AcDbSymbolTableRecord
100
AcDbLinetypeTableRecord
  2
DIVIDETINY
 70
    0
  3
Divide (.15x) __..__..__..__..__..__..__..__.._
 72
   65
 73
    6
 40
4.7625
 49
1.905
 74
    0
 49
-0.9525
 74
    0
 49
0
 74
    0
 49
-0.9525
 74
    0
 49
0
 74
    0
 49
-0.9525
 74
    0
  0
LTYPE
  5
40
330
5
100
AcDbSymbolTableRecord
100
AcDbLinetypeTableRecord
  2
DIVIDE2
 70
    0
  3
Divide (.5x) __..__..__..__..__..__..__..__.._
 72
   65
 73
    6
 40
15.875
 49
6.35
 74
    0
 49
-3.175
 74
    0
 49
0
 74
    0
 49
-3.175
 74
    0
 49
0
 74
    0
 49
-3.175
 74
    0
  0
LTYPE
  5
41
330
5
100
AcDbSymbolTableRecord
100
AcDbLinetypeTableRecord
  2
DIVIDEX2
 70
    0
  3
Divide (2x) ________  .  .  ________  .  .  _
 72
   65
 73
    6
 40
63.5
 49
25.4
 74
    0
 49
-12.7
 74
    0
 49
0
 74
    0
 49
-12.7
 74
    0
 49
0
 74
    0
 49
-12.7
 74
    0
  0
LTYPE
  5
42
330
5
100
AcDbSymbolTableRecord
100
AcDbLinetypeTableRecord
  2
BORDER
 70
    0
  3
Border __ __ . __ __ . __ __ . __ __ . __ __ .
 72
   65
 73
    6
 40
44.45
 49
12.7
 74
    0
 49
-6.35
 74
    0
 49
12.7
 74
    0
 49
-6.35
 74
    0
 49
0
 74
    0
 49
-6.35
 74
    0
  0
LTYPE
  5
43
330
5
100
AcDbSymbolTableRecord
100
AcDbLinetypeTableRecord
  2
BORDERTINY
 70
    0
  3
Border (.15x) __.__.__.__.__.__.__.__.__.__.__.
 72
   65
 73
    6
 40
6.6675
 49
1.905
 74
    0
 49
-0.9525
 74
    0
 49
1.905
 74
    0
 49
-0.9525
 74
    0
 49
0
 74
    0
 49
-0.9525
 74
    0
  0
LTYPE
  5
44
330
5
100
AcDbSymbolTableRecord
100
AcDbLinetypeTableRecord
  2
BORDER2
 70
    0
  3
Border (.5x) __.__.__.__.__.__.__.__.__.__.__.
 72
   65
 73
    6
 40
22.225
 49
6.35
 74
    0
 49
-3.175
 74
    0
 49
6.35
 74
    0
 49
-3.175
 74
    0
 49
0
 74
    0
 49
-3.175
 74
    0
  0
LTYPE
  5
45
330
5
100
AcDbSymbolTableRecord
100
AcDbLinetypeTableRecord
  2
BORDERX2
 70
    0
  3
Border (2x) ____  ____  .  ____  ____  .  ___
 72
   65
 73
    6
 40
88.89999999999999
 49
25.4
 74
    0
 49
-12.7
 74
    0
 49
25.4
 74
    0
 49
-12.7
 74
    0
 49
0
 74
    0
 49
-12.7
 74
    0
  0
LTYPE
  5
46
330
5
100
AcDbSymbolTableRecord
100
AcDbLinetypeTableRecord
  2
CENTER
 70
    0
  3
Center ____ _ ____ _ ____ _ ____ _ ____ _ ____
 72
   65
 73
    4
 40
50.8
 49
31.75
 74
    0
 49
-6.35
 74
    0
 49
6.35
 74
    0
 49
-6.35
 74
    0
  0
LTYPE
  5
47
330
5
100
AcDbSymbolTableRecord
100
AcDbLinetypeTableRecord
  2
CENTERTINY
 70
    0
  3
Center (.15x) ___ _ ___ _ ___ _ ___ _ ___ _ ___
 72
   65
 73
    4
 40
7.619999999999999
 49
4.7625
 74
    0
 49
-0.9525
 74
    0
 49
0.9525
 74
    0
 49
-0.9525
 74
    0
  0
LTYPE
  5
48
330
5
100
AcDbSymbolTableRecord
100
AcDbLinetypeTableRecord
  2
CENTER2
 70
    0
  3
Center (.5x) ___ _ ___ _ ___ _ ___ _ ___ _ ___
 72
   65
 73
    4
 40
28.575
 49
19.05
 74
    0
 49
-3.175
 74
    0
 49
3.175
 74
    0
 49
-3.175
 74
    0
  0
LTYPE
  5
49
330
5
100
AcDbSymbolTableRecord
100
AcDbLinetypeTableRecord
  2
CENTERX2
 70
    0
  3
Center (2x) ________  __  ________  __  _____
 72
   65
 73
    4
 40
101.6
 49
63.5
 74
    0
 49
-12.7
 74
    0
 49
12.7
 74
    0
 49
-12.7
 74
    0
  0
ENDTAB
  0
TABLE
  2
LAYER
  5
2
330
0
100
AcDbSymbolTable
 70
    1
  0
LAYER
  5
10
330
2
100
AcDbSymbolTableRecord
100
AcDbLayerTableRecord
  2
0
 70
    0
 62
    7
  6
CONTINUOUS
370
   -3
390
F
  0
LAYER
  5
4A
330
2
100
AcDbSymbolTableRecord
100
AcDbLayerTableRecord
  2
STRUCT_BEAMS
 70
    0
 62
    7
  6
CONTINUOUS
370
   -3
390
F
  0
LAYER
  5
4B
330
2
100
AcDbSymbolTableRecord
100
AcDbLayerTableRecord
  2
STRUCT_CONSTRAINTS
 70
    0
 62
    2
  6
CONTINUOUS
370
   -3
390
F
  0
LAYER
  5
4C
330
2
100
AcDbSymbolTableRecord
100
AcDbLayerTableRecord
  2
STRUCT_LOADS
 70
    0
 62
    3
  6
CONTINUOUS
370
   -3
390
F
  0
LAYER
  5
4D
330
2
100
AcDbSymbolTableRecord
100
AcDbLayerTableRecord
  2
STRUCT_MATERIALS
 70
    0
 62
    1
  6
CONTINUOUS
370
    0
390
F
  0
LAYER
  5
4E
330
2
100
AcDbSymbolTableRecord
100
AcDbLayerTableRecord
  2
STRUCT_NODES
 70
    1
 62
    4
  6
CONTINUOUS
370
   -3
390
F
  0
LAYER
  5
4F
330
2
100
AcDbSymbolTableRecord
100
AcDbLayerTableRecord
  2
STRUCT_SECTIONS
 70
    0
 62
    6
  6
CONTINUOUS
370
    0
390
F
  0
ENDTAB
  0
TABLE
  2
STYLE
  5
3
330
0
100
AcDbSymbolTable
 70
    3
  0
STYLE
  5
50
330
2
100
AcDbSymbolTableRecord
100
AcDbTextStyleTableRecord
  2
iso
 70
    0
 40
0
 41
1
 50
0
 71
    0
 42
1
  3
iso
  4

  0
STYLE
  5
51
330
2
100
AcDbSymbolTableRecord
100
AcDbTextStyleTableRecord
  2
Standard
 70
    0
 40
0
 41
1
 50
0
 71
    0
 42
1
  3
txt
  4

  0
ENDTAB
  0
TABLE
  2
VIEW
  5
6
330
0
100
AcDbSymbolTable
 70
    0
  0
ENDTAB
  0
TABLE
  2
UCS
  5
7
330
0
100
AcDbSymbolTable
 70
    0
  0
ENDTAB
  0
TABLE
  2
APPID
  5
9
330
0
100
AcDbSymbolTable
 70
    1
  0
APPID
  5
12
330
9
100
AcDbSymbolTableRecord
100
AcDbRegAppTableRecord
  2
ACAD
 70
    0
  0
APPID
  5
52
330
9
100
AcDbSymbolTableRecord
100
AcDbRegAppTableRecord
  2
LibreCad
 70
    0
  0
ENDTAB
  0
TABLE
  2
DIMSTYLE
  5
A
330
0
100
AcDbSymbolTable
 70
    1
100
AcDbDimStyleTable
 71
    1
  0
DIMSTYLE
105
53
330
A
100
AcDbSymbolTableRecord
100
AcDbDimStyleTableRecord
  2
Standard
 70
    0
 40
50
 41
3.5
 42
1.5
 43
0.38
 44
2
 45
0
 46
0
 47
0
 48
0
 49
1
140
2.5
141
0.09
142
0
143
25.4
144
1
145
0
146
1
147
2
148
0
 71
    0
 72
    0
 73
    0
 74
    1
 75
    0
 76
    0
 77
    0
 78
    8
 79
    0
170
    0
171
    2
172
    0
173
    0
174
    0
175
    0
176
    2
177
    2
178
    3
179
    0
271
    2
272
    4
273
    2
274
    2
275
    0
276
    0
277
    2
278
   44
279
    0
280
    0
281
    0
282
    0
283
    1
284
    0
285
    0
286
    0
288
    0
289
    3
340
51
  0
ENDTAB
  0
TABLE
  2
BLOCK_RECORD
  5
1
330
0
100
AcDbSymbolTable
 70
    2
  0
BLOCK_RECORD
  5
1F
330
1
100
AcDbSymbolTableRecord
100
AcDbBlockTableRecord
  2
*Model_Space
 70
    0
280
    1
281
    0
  0
BLOCK_RECORD
  5
1E
330
1
100
AcDbSymbolTableRecord
100
AcDbBlockTableRecord
  2
*Paper_Space
 70
    0
280
    1
281
    0
  0
BLOCK_RECORD
  5
54
330
1
100
AcDbSymbolTableRecord
100
AcDbBlockTableRecord
  2
block16
 70
    0
280
    1
281
    0
  0
BLOCK_RECORD
  5
57
330
1
100
AcDbSymbolTableRecord
100
AcDbBlockTableRecord
  2
block5
 70
    0
280
    1
281
    0
  0
ENDTAB
  0
ENDSEC
  0
SECTION
  2
BLOCKS
  0
BLOCK
  5
20
330
1F
100
AcDbEntity
  8
0
100
AcDbBlockBegin
  2
*Model_Space
 70
    0
 10
0
 20
0
 30
0
  3
*Model_Space
  1

  0
ENDBLK
  5
21
330
1F
100
AcDbEntity
  8
0
100
AcDbBlockEnd
  0
BLOCK
  5
1C
330
1B
100
AcDbEntity
  8
0
100
AcDbBlockBegin
  2
*Paper_Space
 70
    0
 10
0
 20
0
 30
0
  3
*Paper_Space
  1

  0
ENDBLK
  5
1D
330
1F
100
AcDbEntity
  8
0
100
AcDbBlockEnd
  0
BLOCK
  5
55
330
54
100
AcDbEntity
  8
0
100
AcDbBlockBegin
  2
block16
 70
    0
 10
0
 20
0
  3
block16
  1

  0
LWPOLYLINE
  5
5A
100
AcDbEntity
  8
0
  6
CONTINUOUS
 62
    7
370
   70
100
AcDbPolyline
 90
    7
 70
    1
 43
0
 10
0
 20
0
 10
25
 20
0
 10
25
 20
-5
 10
30
 20
5
 10
25
 20
15
 10
25
 20
10
 10
0
 20
10
  0
ENDBLK
  5
56
330
54
100
AcDbEntity
  8
0
100
AcDbBlockEnd
  0
BLOCK
  5
58
330
57
100
AcDbEntity
  8
0
100
AcDbBlockBegin
  2
block5
 70
    0
 10
0
 20
0
  3
block5
  1

  0
LWPOLYLINE
  5
5B
100
AcDbEntity
  8
STRUCT_CONSTRAINTS
  6
ByLayer
 62
  256
370
   -1
100
AcDbPolyline
 90
    3
 70
    1
 43
0
 10
46.188022
 20
0
 10
23.094011
 20
40
 10
0
 20
0
  0
ENDBLK
  5
59
330
57
100
AcDbEntity
  8
0
100
AcDbBlockEnd
  0
ENDSEC
  0
SECTION
  2
ENTITIES
  0
LINE
  5
5C
100
AcDbEntity
  8
STRUCT_BEAMS
  6
ByLayer
 62
  256
370
   -1
100
AcDbLine
 10
0
 20
0
 11
0
 21
4000
  0
LINE
  5
5D
100
AcDbEntity
  8
STRUCT_BEAMS
  6
ByLayer
 62
  256
370
   -1
100
AcDbLine
 10
0
 20
4000
 11
6000
 21
4000
  0
LINE
  5
5E
100
AcDbEntity
  8
STRUCT_BEAMS
  6
ByLayer
 62
  256
370
   -1
100
AcDbLine
 10
6000
 20
4000
 11
6000
 21
0
  0
LINE
  5
5F
100
AcDbEntity
  8
STRUCT_BEAMS
  6
ByLayer
 62
  256
370
   -1
100
AcDbLine
 10
0
 20
4000
 11
6000
 21
0
  0
LINE
  5
60
100
AcDbEntity
  8
STRUCT_BEAMS
  6
ByLayer
 62
  256
370
   -1
100
AcDbLine
 10
0
 20
0
 11
6000
 21
4000
  0
CIRCLE
  5
61
100
AcDbEntity
  8
STRUCT_NODES
  6
ByLayer
 62
  256
370
   -1
100
AcDbCircle
 10
0
 20
0
 40
12
  0
MTEXT
  5
62
100
AcDbEntity
  8
STRUCT_NODES
  6
ByLayer
 62
  256
370
   -1
100
AcDbMText
 10
-27.71251948937019
 20
4.440892098500626e-15
 30
0
 40
17.5
 41
0
 71
    5
 72
    1
  1
N1
  7
iso
210
0
220
0
230
1
 50
0
 73
    2
 44
1
  0
LWPOLYLINE
  5
63
100
AcDbEntity
  8
STRUCT_CONSTRAINTS
  6
ByLayer
 62
  256
370
   -1
100
AcDbPolyline
 90
    3
 70
    1
 43
0
 10
23.09401099999999
 20
-40
 10
0
 20
0
 10
-23.094011
 20
-40
  0
MTEXT
  5
64
100
AcDbEntity
  8
STRUCT_CONSTRAINTS
  6
ByLayer
 62
  256
370
   -1
100
AcDbMText
 10
-2.455906069689945
 20
-58.95053841464954
 30
0
 40
17.5
 41
71.94444444444662
 71
    5
 72
    1
  1
CLAMP
  7
iso
210
0
220
0
230
1
 50
0
 73
    2
 44
1
  0
MTEXT
  5
65
100
AcDbEntity
  8
STRUCT_BEAMS
  6
ByLayer
 62
  256
370
   -1
100
AcDbMText
 10
-2.309376624114184
 20
1997.451701361763
 30
0
 40
17.5
 41
21.38888888888889
 71
    5
 72
    1
  1
M1
  7
iso
210
0
220
0
230
1
 50
0
 73
    2
 44
1
  0
MTEXT
  5
66
100
AcDbEntity
  8
STRUCT_MATERIALS
  6
ByLayer
 62
  256
370
   -1
100
AcDbMText
 10
2.985490508979475
 20
1944.796289685504
 30
0
 40
17.5
 41
50.55555184552119
 71
    5
 72
    1
  1
S355
  7
iso
210
0
220
0
230
1
 50
0
 73
    2
 44
1
  0
MTEXT
  5
67
100
AcDbEntity
  8
STRUCT_SECTIONS
  6
ByLayer
 62
  256
370
   -1
100
AcDbMText
 10
1.492745254489738
 20
1971.66570426632
 30
0
 40
17.5
 41
56.38888888888889
 71
    5
 72
    1
  1
IPE80
  7
iso
210
0
220
0
230
1
 50
0
 73
    2
 44
1
  0
CIRCLE
  5
68
100
AcDbEntity
  8
STRUCT_NODES
  6
ByLayer
 62
  256
370
   -1
100
AcDbCircle
 10
0
 20
4000
 40
12
  0
MTEXT
  5
69
100
AcDbEntity
  8
STRUCT_NODES
  6
ByLayer
 62
  256
370
   -1
100
AcDbMText
 10
-27.71251948937022
 20
4001.831532595868
 30
0
 40
17.5
 41
0
 71
    5
 72
    1
  1
N2
  7
iso
210
0
220
0
230
1
 50
0
 73
    2
 44
1
  0
MTEXT
  5
6A
100
AcDbEntity
  8
STRUCT_BEAMS
  6
ByLayer
 62
  256
370
   -1
100
AcDbMText
 10
2996.754896198673
 20
3999.522155971754
 30
0
 40
17.5
 41
25.27777777777778
 71
    5
 72
    1
  1
M2
  7
iso
210
0
220
0
230
1
 50
0
 73
    2
 44
1
  0
MTEXT
  5
6B
100
AcDbEntity
  8
STRUCT_MATERIALS
  6
ByLayer
 62
  256
370
   -1
100
AcDbMText
 10
3152.301812110391
 20
3998.56298294876
 30
0
 40
17.5
 41
50.55555184552119
 71
    5
 72
    1
  1
S355
  7
iso
210
0
220
0
230
1
 50
0
 73
    2
 44
1
  0
MTEXT
  5
6C
100
AcDbEntity
  8
STRUCT_SECTIONS
  6
ByLayer
 62
  256
370
   -1
100
AcDbMText
 10
3076.171804131414
 20
3998.56298294876
 30
0
 40
17.5
 41
56.38888888888889
 71
    5
 72
    1
  1
IPE80
  7
iso
210
0
220
0
230
1
 50
0
 73
    2
 44
1
  0
CIRCLE
  5
6D
100
AcDbEntity
  8
STRUCT_NODES
  6
ByLayer
 62
  256
370
   -1
100
AcDbCircle
 10
6000
 20
4000
 40
12
  0
MTEXT
  5
6E
100
AcDbEntity
  8
STRUCT_NODES
  6
ByLayer
 62
  256
370
   -1
100
AcDbMText
 10
6027.057685509171
 20
3998.793220023414
 30
0
 40
17.5
 41
0
 71
    5
 72
    1
  1
N3
  7
iso
210
0
220
0
230
1
 50
0
 73
    2
 44
1
  0
CIRCLE
  5
6F
100
AcDbEntity
  8
STRUCT_NODES
  6
ByLayer
 62
  256
370
   -1
100
AcDbCircle
 10
6000
 20
0
 40
12
  0
MTEXT
  5
70
100
AcDbEntity
  8
STRUCT_CONSTRAINTS
  6
ByLayer
 62
  256
370
   -1
100
AcDbMText
 10
5997.54409393031
 20
-58.95053841464942
 30
0
 40
17.5
 41
71.94444444444662
 71
    5
 72
    1
  1
CLAMP
  7
iso
210
0
220
0
230
1
 50
0
 73
    2
 44
1
  0
LWPOLYLINE
  5
71
100
AcDbEntity
  8
STRUCT_CONSTRAINTS
  6
ByLayer
 62
  256
370
   -1
100
AcDbPolyline
 90
    3
 70
    1
 43
0
 10
6023.094011
 20
-40
 10
6000
 20
0
 10
5976.905989
 20
-40
  0
MTEXT
  5
72
100
AcDbEntity
  8
STRUCT_NODES
  6
ByLayer
 62
  256
370
   -1
100
AcDbMText
 10
6027.022638681167
 20
0.6202445877907992
 30
0
 40
17.5
 41
0
 71
    5
 72
    1
  1
N4
  7
iso
210
0
220
0
230
1
 50
0
 73
    2
 44
1
  0
MTEXT
  5
73
100
AcDbEntity
  8
STRUCT_BEAMS
  6
ByLayer
 62
  256
370
   -1
100
AcDbMText
 10
6002.747298893802
 20
1999.761077985877
 30
0
 40
17.5
 41
25.27777777777887
 71
    5
 72
    1
  1
M3
  7
iso
210
0
220
0
230
1
 50
0
 73
    2
 44
1
  0
MTEXT
  5
74
100
AcDbEntity
  8
STRUCT_MATERIALS
  6
ByLayer
 62
  256
370
   -1
100
AcDbMText
 10
6003.069082813854
 20
1944.796289685504
 30
0
 40
17.5
 41
50.55555184552119
 71
    5
 72
    1
  1
S355
  7
iso
210
0
220
0
230
1
 50
0
 73
    2
 44
1
  0
MTEXT
  5
75
100
AcDbEntity
  8
STRUCT_SECTIONS
  6
ByLayer
 62
  256
370
   -1
100
AcDbMText
 10
6006.054573322834
 20
1970.17295901183
 30
0
 40
17.5
 41
56.38888888888889
 71
    5
 72
    1
  1
IPE80
  7
iso
210
0
220
0
230
1
 50
0
 73
    2
 44
1
  0
MTEXT
  5
76
100
AcDbEntity
  8
STRUCT_MATERIALS
  6
ByLayer
 62
  256
370
   -1
100
AcDbMText
 10
2992.723694712355
 20
1956.546917019059
 30
0
 40
17.5
 41
50.55555184552119
 71
    5
 72
    1
  1
S355
  7
iso
210
0
220
0
230
1
 50
0
 73
    2
 44
1
  0
MTEXT
  5
77
100
AcDbEntity
  8
STRUCT_SECTIONS
  6
ByLayer
 62
  256
370
   -1
100
AcDbMText
 10
2991.230949457865
 20
1983.416331599875
 30
0
 40
17.5
 41
56.38888888888889
 71
    5
 72
    1
  1
IPE80
  7
iso
210
0
220
0
230
1
 50
0
 73
    2
 44
1
  0
MTEXT
  5
78
100
AcDbEntity
  8
STRUCT_BEAMS
  6
ByLayer
 62
  256
370
   -1
100
AcDbMText
 10
2987.428827579261
 20
2009.202328695317
 30
0
 40
17.5
 41
27.22222222222222
 71
    5
 72
    1
  1
M4
  7
iso
210
0
220
0
230
1
 50
0
 73
    2
 44
1
  0
MTEXT
  5
79
100
AcDbEntity
  8
STRUCT_MATERIALS
  6
ByLayer
 62
  256
370
   -1
100
AcDbMText
 10
3025.107300201778
 20
1957.245876446098
 30
0
 40
17.5
 41
50.55555184552119
 71
    5
 72
    1
  1
S355
  7
iso
210
0
220
0
230
1
 50
0
 73
    2
 44
1
  0
MTEXT
  5
7A
100
AcDbEntity
  8
STRUCT_SECTIONS
  6
ByLayer
 62
  256
370
   -1
100
AcDbMText
 10
3023.614554947288
 20
1984.115291026913
 30
0
 40
17.5
 41
56.38888888888889
 71
    5
 72
    1
  1
IPE80
  7
iso
210
0
220
0
230
1
 50
0
 73
    2
 44
1
  0
MTEXT
  5
7B
100
AcDbEntity
  8
STRUCT_BEAMS
  6
ByLayer
 62
  256
370
   -1
100
AcDbMText
 10
3019.812433068684
 20
2009.901288122356
 30
0
 40
17.5
 41
25.27777777777887
 71
    5
 72
    1
  1
M5
  7
iso
210
0
220
0
230
1
 50
0
 73
    2
 44
1
  0
LWPOLYLINE
  5
7C
100
AcDbEntity
  8
STRUCT_LOADS
  6
CONTINUOUS
 62
  256
370
   -1
100
AcDbPolyline
 90
    7
 70
    1
 43
0
 10
2832.071630899351
 20
4050.004821756872
 10
2832.071630899351
 20
4025.004821756872
 10
2827.071630899351
 20
4025.004821756872
 10
2837.071630899351
 20
4020.004821756872
 10
2847.071630899351
 20
4025.004821756872
 10
2842.071630899351
 20
4025.004821756872
 10
2842.071630899351
 20
4050.004821756872
  0
LWPOLYLINE
  5
7D
100
AcDbEntity
  8
STRUCT_LOADS
  6
CONTINUOUS
 62
  256
370
   -1
100
AcDbPolyline
 90
    7
 70
    1
 43
0
 10
3132.071630899351
 20
4050.004821756872
 10
3132.071630899351
 20
4025.004821756872
 10
3127.071630899351
 20
4025.004821756872
 10
3137.071630899351
 20
4020.004821756872
 10
3147.071630899351
 20
4025.004821756872
 10
3142.071630899351
 20
4025.004821756872
 10
3142.071630899351
 20
4050.004821756872
  0
LWPOLYLINE
  5
7E
100
AcDbEntity
  8
STRUCT_LOADS
  6
CONTINUOUS
 62
  256
370
   -1
100
AcDbPolyline
 90
    7
 70
    1
 43
0
 10
3442.071630899351
 20
4050.004821756872
 10
3442.071630899351
 20
4025.004821756872
 10
3447.071630899351
 20
4025.004821756872
 10
3437.071630899351
 20
4020.004821756872
 10
3427.071630899351
 20
4025.004821756872
 10
3432.071630899351
 20
4025.004821756872
 10
3432.071630899351
 20
4050.004821756872
  0
LWPOLYLINE
  5
7F
100
AcDbEntity
  8
STRUCT_LOADS
  6
CONTINUOUS
 62
  256
370
   -1
100
AcDbPolyline
 90
    7
 70
    1
 43
0
 10
2907.071630899351
 20
4050.004821756872
 10
2907.071630899351
 20
4025.004821756872
 10
2902.071630899351
 20
4025.004821756872
 10
2912.071630899351
 20
4020.004821756872
 10
2922.071630899351
 20
4025.004821756872
 10
2917.071630899351
 20
4025.004821756872
 10
2917.071630899351
 20
4050.004821756872
  0
LWPOLYLINE
  5
80
100
AcDbEntity
  8
STRUCT_LOADS
  6
CONTINUOUS
 62
  256
370
   -1
100
AcDbPolyline
 90
    7
 70
    1
 43
0
 10
2982.071630899351
 20
4050.004821756872
 10
2982.071630899351
 20
4025.004821756872
 10
2977.071630899351
 20
4025.004821756872
 10
2987.071630899351
 20
4020.004821756872
 10
2997.071630899351
 20
4025.004821756872
 10
2992.071630899351
 20
4025.004821756872
 10
2992.071630899351
 20
4050.004821756872
  0
LWPOLYLINE
  5
81
100
AcDbEntity
  8
STRUCT_LOADS
  6
CONTINUOUS
 62
  256
370
   -1
100
AcDbPolyline
 90
    7
 70
    1
 43
0
 10
3057.071630899351
 20
4050.004821756872
 10
3057.071630899351
 20
4025.004821756872
 10
3052.071630899351
 20
4025.004821756872
 10
3062.071630899351
 20
4020.004821756872
 10
3072.071630899351
 20
4025.004821756872
 10
3067.071630899351
 20
4025.004821756872
 10
3067.071630899351
 20
4050.004821756872
  0
LWPOLYLINE
  5
82
100
AcDbEntity
  8
STRUCT_LOADS
  6
CONTINUOUS
 62
  256
370
   -1
100
AcDbPolyline
 90
    7
 70
    1
 43
0
 10
3367.071630899351
 20
4050.004821756872
 10
3367.071630899351
 20
4025.004821756872
 10
3372.071630899351
 20
4025.004821756872
 10
3362.071630899351
 20
4020.004821756872
 10
3352.071630899351
 20
4025.004821756872
 10
3357.071630899351
 20
4025.004821756872
 10
3357.071630899351
 20
4050.004821756872
  0
LWPOLYLINE
  5
83
100
AcDbEntity
  8
STRUCT_LOADS
  6
CONTINUOUS
 62
  256
370
   -1
100
AcDbPolyline
 90
    7
 70
    1
 43
0
 10
3292.071630899351
 20
4050.004821756872
 10
3292.071630899351
 20
4025.004821756872
 10
3297.071630899351
 20
4025.004821756872
 10
3287.071630899351
 20
4020.004821756872
 10
3277.071630899351
 20
4025.004821756872
 10
3282.071630899351
 20
4025.004821756872
 10
3282.071630899351
 20
4050.004821756872
  0
LWPOLYLINE
  5
84
100
AcDbEntity
  8
STRUCT_LOADS
  6
CONTINUOUS
 62
  256
370
   -1
100
AcDbPolyline
 90
    7
 70
    1
 43
0
 10
3217.071630899351
 20
4050.004821756872
 10
3217.071630899351
 20
4025.004821756872
 10
3222.071630899351
 20
4025.004821756872
 10
3212.071630899351
 20
4020.004821756872
 10
3202.071630899351
 20
4025.004821756872
 10
3207.071630899351
 20
4025.004821756872
 10
3207.071630899351
 20
4050.004821756872
  0
MTEXT
  5
85
100
AcDbEntity
  8
STRUCT_LOADS
  6
ByLayer
 62
  256
370
   -1
100
AcDbMText
 10
6001.760030830795
 20
4001.626040539462
 30
0
 40
8.75
 41
84.58333333333428
 71
    5
 72
    1
  1
M = 1 kNm CW
  7
iso
210
0
220
0
230
1
 50
0
 73
    2
 44
1
  0
MTEXT
  5
86
100
AcDbEntity
  8
STRUCT_LOADS
  6
ByLayer
 62
  256
370
   -1
100
AcDbMText
 10
3121.427591652196
 20
4082.11181793372
 30
0
 40
17.5
 41
267.8538892326546
 71
    5
 72
    1
  1
q = 2 kN/m su TRAVE
  7
iso
210
0
220
0
230
1
 50
0
 73
    2
 44
1
  0
MTEXT
  5
87
100
AcDbEntity
  8
STRUCT_LOADS
  6
ByLayer
 62
  256
370
   -1
100
AcDbMText
 10
7.139157849823945
 20
3999.67018326205
 30
0
 40
17.5
 41
147.7777777777778
 71
    5
 72
    1
  1
F = 2 kN FX
  7
iso
210
0
220
0
230
1
 50
0
 73
    2
 44
1
  0
ENDSEC
  0
SECTION
  2
OBJECTS
  0
DICTIONARY
  5
C
330
0
100
AcDbDictionary
281
    1
  3
ACAD_GROUP
350
D
  0
DICTIONARY
  5
D
330
C
100
AcDbDictionary
281
    1
  0
PLOTSETTINGS
  5
88
100
AcDbPlotSettings
  6
1x1
 40
0
 41
0
 42
0
 43
0
  0
ENDSEC
  0
EOF
